<svg width="32" height="24" viewBox="0 0 32 24" fill="none" xmlns="http://www.w3.org/2000/svg">
<g clip-path="url(#clip0_1_686)">
<mask id="mask0_1_686" style="mask-type:luminance" maskUnits="userSpaceOnUse" x="0" y="0" width="32" height="24">
<path d="M32 0H0V24H32V0Z" fill="white"/>
</mask>
<g mask="url(#mask0_1_686)">
<path d="M27.0894 2.13724C25.0498 1.23117 22.8626 0.563624 20.5759 0.181291C20.5342 0.173912 20.4926 0.192353 20.4712 0.229234C20.1899 0.713603 19.8783 1.3455 19.6601 1.84217C17.2005 1.48566 14.7536 1.48566 12.3444 1.84217C12.1262 1.33446 11.8033 0.713603 11.5208 0.229234C11.4993 0.193583 11.4577 0.175143 11.4161 0.181291C9.13055 0.562403 6.94341 1.22995 4.90258 2.13724C4.88491 2.14461 4.86977 2.15692 4.85972 2.17289C0.711189 8.1735 -0.425267 14.0266 0.13224 19.8072C0.134763 19.8354 0.15116 19.8625 0.173864 19.8797C2.91095 21.8258 5.56228 23.0072 8.16437 23.7903C8.20602 23.8026 8.25014 23.7879 8.27664 23.7547C8.89217 22.9409 9.44086 22.0828 9.9113 21.1804C9.93906 21.1275 9.91256 21.0648 9.85582 21.0439C8.98551 20.7243 8.1568 20.3346 7.35964 19.892C7.29659 19.8564 7.29154 19.769 7.34954 19.7272C7.5173 19.6055 7.68509 19.4789 7.84527 19.351C7.87425 19.3277 7.91464 19.3228 7.94871 19.3375C13.1857 21.6525 18.8554 21.6525 24.0306 19.3375C24.0647 19.3215 24.1051 19.3265 24.1353 19.3498C24.2955 19.4777 24.4633 19.6055 24.6323 19.7272C24.6903 19.769 24.6865 19.8564 24.6235 19.892C23.8263 20.3432 22.9976 20.7243 22.126 21.0427C22.0693 21.0636 22.044 21.1275 22.0718 21.1804C22.5523 22.0815 23.101 22.9396 23.7052 23.7535C23.7304 23.7879 23.7758 23.8026 23.8175 23.7903C26.4322 23.0072 29.0835 21.8258 31.8206 19.8797C31.8446 19.8625 31.8597 19.8367 31.8622 19.8084C32.5294 13.1254 30.7447 7.32032 27.131 2.17411C27.1221 2.15692 27.107 2.14461 27.0894 2.13724ZM10.6934 16.2874C9.11666 16.2874 7.81751 14.886 7.81751 13.1648C7.81751 11.4437 9.09147 10.0422 10.6934 10.0422C12.3078 10.0422 13.5944 11.456 13.5692 13.1648C13.5692 14.886 12.2952 16.2874 10.6934 16.2874ZM21.3263 16.2874C19.7497 16.2874 18.4505 14.886 18.4505 13.1648C18.4505 11.4437 19.7244 10.0422 21.3263 10.0422C22.9408 10.0422 24.2274 11.456 24.2022 13.1648C24.2022 14.886 22.9408 16.2874 21.3263 16.2874Z" fill="white"/>
</g>
</g>
<defs>
<clipPath id="clip0_1_686">
<rect width="32" height="24" fill="white"/>
</clipPath>
</defs>
</svg>
