<svg width="20" height="20" viewBox="0 0 20 20" fill="none" xmlns="http://www.w3.org/2000/svg">
<g clip-path="url(#clip0_1_664)">
<path d="M10.9936 2.5C12.4302 2.5 13.8079 3.07068 14.8237 4.0865C15.8396 5.10233 16.4103 6.48008 16.4103 7.91667C16.4103 9.25833 15.9186 10.4917 15.1103 11.4417L15.3353 11.6667H15.9936L20.1603 15.8333L18.9103 17.0833L14.7436 12.9167V12.2583L14.5186 12.0333C13.5686 12.8417 12.3353 13.3333 10.9936 13.3333C9.557 13.3333 8.17925 12.7627 7.16342 11.7468C6.1476 10.731 5.57692 9.35326 5.57692 7.91667C5.57692 6.48008 6.1476 5.10233 7.16342 4.0865C8.17925 3.07068 9.557 2.5 10.9936 2.5ZM10.9936 4.16667C8.91025 4.16667 7.24359 5.83333 7.24359 7.91667C7.24359 10 8.91025 11.6667 10.9936 11.6667C13.0769 11.6667 14.7436 10 14.7436 7.91667C14.7436 5.83333 13.0769 4.16667 10.9936 4.16667Z" fill="white"/>
</g>
<defs>
<clipPath id="clip0_1_664">
<rect width="20" height="20" fill="white"/>
</clipPath>
</defs>
</svg>
