<svg width="35" height="29" viewBox="0 0 35 29" fill="none" xmlns="http://www.w3.org/2000/svg">
<path fill-rule="evenodd" clip-rule="evenodd" d="M2.4661 12.6758C11.7942 8.58536 18.0296 5.94156 21.1723 4.6446C30.0514 0.953247 31.8971 0.304766 33.0943 0.254883C33.3437 0.254883 33.9423 0.304766 34.3414 0.604065C34.6407 0.85348 34.7405 1.20266 34.7903 1.45208C34.8402 1.70149 34.8901 2.25021 34.8402 2.69915C34.3414 7.73735 32.2962 20.0585 31.1988 25.6953C30.7498 28.0896 29.8519 28.8878 29.0039 28.9875C27.1582 29.1372 25.7116 27.7405 23.9158 26.5932C21.1224 24.7475 19.5261 23.6002 16.7825 21.8044C13.6399 19.7093 15.6851 18.562 17.4809 16.7163C17.9299 16.2175 26.1606 8.78489 26.3102 8.08653C26.3102 7.98676 26.3601 7.68746 26.1606 7.53781C25.961 7.38816 25.7116 7.43805 25.5121 7.48793C25.2128 7.53781 20.7233 10.5308 11.9938 16.417C10.6968 17.3149 9.5495 17.714 8.50195 17.714C7.35464 17.714 5.15979 17.0655 3.51364 16.5168C1.51832 15.8683 -0.077939 15.5191 0.0717103 14.4217C0.171476 13.873 0.969606 13.2744 2.4661 12.6758Z" fill="white"/>
</svg>
