<svg width="36" height="20" viewBox="0 0 36 20" fill="none" xmlns="http://www.w3.org/2000/svg">
<path d="M20.2001 10.0333C20.2001 15.4391 15.8445 19.8214 10.4718 19.8214C5.09917 19.8214 0.743195 15.4391 0.743195 10.0333C0.743195 4.62747 5.09884 0.244873 10.4718 0.244873C15.8448 0.244873 20.2001 4.62747 20.2001 10.0333Z" fill="white"/>
<path d="M30.8724 10.0334C30.8724 15.1218 28.6946 19.2484 26.0081 19.2484C23.3216 19.2484 21.1438 15.1218 21.1438 10.0334C21.1438 4.94498 23.3213 0.818359 26.0078 0.818359C28.6943 0.818359 30.8721 4.94366 30.8721 10.0334" fill="white"/>
<path d="M35.2377 10.0333C35.2377 14.5913 34.4718 18.2885 33.5269 18.2885C32.5819 18.2885 31.8164 14.5923 31.8164 10.0333C31.8164 5.47433 32.5822 1.77808 33.5269 1.77808C34.4715 1.77808 35.2377 5.474 35.2377 10.0333Z" fill="white"/>
</svg>
