<svg width="38" height="31" viewBox="0 0 38 31" fill="none" xmlns="http://www.w3.org/2000/svg">
<g clip-path="url(#clip0_1_682)">
<path d="M34.0084 7.79406C34.0314 8.12382 34.0314 8.45357 34.0314 8.78637C34.0314 18.9267 26.2476 30.6216 12.0144 30.6216V30.6155C7.80989 30.6216 3.69271 29.4272 0.153198 27.1751C0.764569 27.2481 1.379 27.2846 1.99497 27.2861C5.47933 27.2891 8.86409 26.1297 11.6053 23.9946C8.29409 23.9323 5.39046 21.7912 4.3761 18.6653C5.53602 18.8872 6.73118 18.8416 7.86965 18.5331C4.25965 17.8098 1.66247 14.6642 1.66247 11.0111C1.66247 10.9776 1.66247 10.9457 1.66247 10.9138C2.73812 11.508 3.94247 11.8377 5.17441 11.8742C1.77433 9.62063 0.726263 5.13475 2.77949 1.6275C6.7082 6.42186 12.5047 9.33647 18.7272 9.64495C18.1036 6.97956 18.9555 4.18652 20.9659 2.31284C24.0825 -0.59265 28.9842 -0.443729 31.9138 2.64563C33.6468 2.30676 35.3078 1.67612 36.8278 0.782595C36.2501 2.55902 35.0412 4.06799 33.4262 5.02686C34.96 4.84755 36.4585 4.44029 37.8697 3.81877C36.8309 5.36269 35.5223 6.70755 34.0084 7.79406Z" fill="white"/>
</g>
<defs>
<clipPath id="clip0_1_682">
<rect width="38" height="31" fill="white"/>
</clipPath>
</defs>
</svg>
