<svg width="20" height="20" viewBox="0 0 20 20" fill="none" xmlns="http://www.w3.org/2000/svg">
<path d="M17.5 15V15.8333C17.5 16.2754 17.3244 16.6993 17.0118 17.0118C16.6993 17.3244 16.2754 17.5 15.8333 17.5H4.16667C3.24167 17.5 2.5 16.75 2.5 15.8333V4.16667C2.5 3.72464 2.67559 3.30072 2.98816 2.98816C3.30072 2.67559 3.72464 2.5 4.16667 2.5H15.8333C16.2754 2.5 16.6993 2.67559 17.0118 2.98816C17.3244 3.30072 17.5 3.72464 17.5 4.16667V5H10C9.075 5 8.33333 5.75 8.33333 6.66667V13.3333C8.33333 13.7754 8.50893 14.1993 8.82149 14.5118C9.13405 14.8244 9.55797 15 10 15M10 13.3333H18.3333V6.66667H10M13.3333 11.25C13.0018 11.25 12.6839 11.1183 12.4494 10.8839C12.215 10.6495 12.0833 10.3315 12.0833 10C12.0833 9.66848 12.215 9.35054 12.4494 9.11612C12.6839 8.8817 13.0018 8.75 13.3333 8.75C13.6649 8.75 13.9828 8.8817 14.2172 9.11612C14.4516 9.35054 14.5833 9.66848 14.5833 10C14.5833 10.3315 14.4516 10.6495 14.2172 10.8839C13.9828 11.1183 13.6649 11.25 13.3333 11.25Z" fill="white"/>
</svg>
